<?xml version="1.0" encoding="utf-8"?>
<!-- Generator: Adobe Illustrator 25.3.0, SVG Export Plug-In . SVG Version: 6.00 Build 0)  -->
<svg version="1.1" id="Layer_1" xmlns="http://www.w3.org/2000/svg" xmlns:xlink="http://www.w3.org/1999/xlink" x="0px" y="0px"
	 viewBox="0 0 451.1 535.1" style="enable-background:new 0 0 451.1 535.1;" xml:space="preserve">
<style type="text/css">
	.st0{opacity:0.1;fill:#685BA3;enable-background:new    ;}
	.st1{opacity:0.1;fill:#4380C0;enable-background:new    ;}
	.st2{opacity:0.1;fill:#38A6DE;enable-background:new    ;}
	.st3{opacity:0.1;fill:#7CA02B;enable-background:new    ;}
	.st4{opacity:0.1;fill:#068C38;enable-background:new    ;}
	.st5{opacity:0.1;fill:#F6AF02;enable-background:new    ;}
	.st6{opacity:0.1;fill:#FFDB05;enable-background:new    ;}
</style>
<g>
	<g>
		<g>
			<path class="st0" d="M193.6,291.4c-0.4,1.4-0.6,2.7-1,4.1c7.1-26.5,21.2-51.5,42.6-71.8c61.6-58.3,6-217,6-217
				c-47.2,44.6-77,100.7-89.4,159.8C180.3,203.9,205.6,251.1,193.6,291.4"/>
			<path class="st1" d="M151.8,166.5c-29.1-38.1-61.5-66.1-61.5-66.1c-18.5,62.2-16.3,125.7,2.5,183.1c23.7,9.9,48,22.9,66.8,39.2
				C143.5,272.1,141,218.1,151.8,166.5"/>
			<path class="st2" d="M159.6,322.8c15.6,13.6,27.4,29.5,31.8,48c0.1,0.5,0.3,1,0.4,1.5c-0.1-0.5-0.2-1-0.3-1.6
				c-0.6-2.5-1.1-5-1.6-7.5c-0.4-2.2-0.8-4.4-1.1-6.6c-0.4-2.8-0.7-5.6-1-8.4c-0.2-2-0.3-4.1-0.4-6.1c-0.1-2.9-0.2-5.8-0.2-8.8
				c0-2.1,0.1-4.2,0.2-6.3c0.1-2.8,0.3-5.5,0.6-8.3c0.2-2.5,0.6-4.9,1-7.4c0.4-2.4,0.7-4.7,1.2-7.1c0.6-3,1.4-5.9,2.2-8.9
				c0.4-1.4,0.6-2.7,1-4.1c12-40.3-13.2-87.4-41.8-124.9C141,218.1,143.5,272.1,159.6,322.8"/>
			<path class="st3" d="M177.6,415c-39.3-35.9-68.4-81.3-84.9-131.4c-44.2-18.5-86.3-26.5-86.3-26.5
				c15.1,63.2,48.7,117.1,93.7,157.3C125.7,411.1,153.2,410.2,177.6,415"/>
			<path class="st4" d="M227.5,438.8c-0.7-0.8-1.4-1.6-2.2-2.4c-0.4-0.5-0.8-1-1.2-1.5c-1.2-1.5-2.5-2.9-3.6-4.4
				c-0.8-1-1.5-1.9-2.3-2.9c-1.2-1.5-2.2-3.1-3.4-4.7c-1-1.4-2-2.9-2.9-4.3c-0.8-1.2-1.7-2.5-2.4-3.7c-0.9-1.5-1.7-3-2.6-4.5
				c-0.8-1.5-1.6-2.9-2.4-4.4c-0.8-1.5-1.6-3.1-2.4-4.6c-0.6-1.3-1.2-2.7-1.8-4.1c-0.7-1.6-1.4-3.2-2-4.8c-0.7-1.8-1.5-3.6-2.1-5.4
				c-0.4-1.1-0.8-2.3-1.1-3.4c-0.6-1.8-1.2-3.6-1.7-5.5c-0.6-1.9-1.1-3.9-1.6-5.8c-0.1-0.5-0.3-1-0.4-1.6
				c-4.4-18.5-16.2-34.4-31.8-48c-18.8-16.4-43.1-29.3-66.8-39.2c16.5,50.1,45.6,95.6,84.9,131.4c20.3,4,38.4,11.9,51.5,25.7
				C228.6,440,228.1,439.4,227.5,438.8"/>
			<path class="st5" d="M372.1,485.2c1.4-0.3,2.8-0.4,4.1-0.8c-101.7,24.3-203.7-5.2-276.1-70.1c-47.5,6.1-88,20.2-88,20.2
				c116.5,123.2,310.8,128.5,434,12C424.8,466.9,399,479.6,372.1,485.2"/>
			<path class="st6" d="M372.1,485.2c-3,0.6-6,1.2-9,1.7c-2.4,0.4-4.8,0.6-7.1,0.8c-2.5,0.2-5,0.5-7.4,0.6c-2.8,0.1-5.5,0.2-8.3,0.2
				c-2.1,0-4.2,0-6.3-0.1c-2.9-0.1-5.8-0.4-8.7-0.7c-2-0.2-4.1-0.4-6.1-0.7c-2.8-0.4-5.6-0.9-8.3-1.4c-2.2-0.4-4.4-0.9-6.5-1.4
				c-2.5-0.6-4.9-1.3-7.4-2c-0.5-0.1-1-0.3-1.6-0.4c0.5,0.2,1,0.4,1.5,0.5c-0.8-0.2-1.6-0.5-2.4-0.8c-1-0.3-2-0.6-3.1-1
				c-0.6-0.2-1.2-0.5-1.8-0.7c-1.8-0.6-3.6-1.3-5.4-2c-1.1-0.4-2.3-0.9-3.4-1.3c-1.8-0.7-3.5-1.6-5.3-2.4c-1.6-0.7-3.1-1.5-4.7-2.3
				c-1.3-0.7-2.7-1.3-4-2c-1.5-0.8-3-1.8-4.5-2.6c-1.4-0.8-2.9-1.7-4.3-2.6c-1.5-0.9-3-1.8-4.4-2.8c-1.2-0.8-2.4-1.8-3.6-2.6
				c-1.4-1-2.8-2.1-4.2-3.1c-1.5-1.2-3.1-2.4-4.5-3.6c-0.9-0.8-1.8-1.6-2.7-2.4c-1.4-1.3-2.8-2.6-4.2-3.9c-1.5-1.4-2.9-2.8-4.3-4.2
				c-0.4-0.4-0.8-0.7-1.2-1.1c-13.1-13.8-31.3-21.7-51.5-25.7c-24.4-4.8-52-3.9-77.5-0.6c72.4,64.8,174.4,94.3,276.1,70.1
				C374.9,484.8,373.5,485,372.1,485.2"/>
		</g>
	</g>
</g>
</svg>
